<?xml version="1.0" encoding="utf-8"?>
<!-- Generator: Adobe Illustrator 22.1.0, SVG Export Plug-In . SVG Version: 6.00 Build 0)  -->
<svg version="1.1" id="レイヤー_1" xmlns="http://www.w3.org/2000/svg" xmlns:xlink="http://www.w3.org/1999/xlink" x="0px"
	 y="0px" viewBox="0 0 99.7 99.7" style="enable-background:new 0 0 99.7 99.7;" xml:space="preserve">
<style type="text/css">
	.st0{fill:#FFFFFF;stroke:#333333;stroke-width:4;stroke-miterlimit:10;}
	.st1{fill:none;stroke:#333333;stroke-width:4;stroke-miterlimit:10;}
</style>
<g>
	<path class="st0" d="M11,97.7h77.7c5,0,9-4,9-9V11c0-5-4-9-9-9H11c-5,0-9,4-9,9v77.7C2,93.7,6,97.7,11,97.7z"/>
	<path class="st1" d="M37.5,79.4l9.9-12.3c0.2-0.3,0.6-0.3,0.9-0.2c14,6.7,28.6-14.9,15.1-28c-9.8-9.5-27.3-2.2-28,10.1
		c0,0.4,0.3,0.8,0.7,0.7l10.7-0.2c1.1,0,1.6,1.2,0.9,2L29,71.9c-0.3,0.3-0.8,0.3-1.1,0L9.1,51c-0.4-0.5-0.1-1.2,0.5-1.2l9.3,0
		c0.4,0,0.7-0.3,0.7-0.7C21.6,9.5,85,7.4,85,53.7c0,23-27.9,40.5-47.3,26.8C37.3,80.2,37.3,79.7,37.5,79.4z"/>
</g>
</svg>
