<?xml version="1.0" encoding="utf-8"?>
<!-- Generator: Adobe Illustrator 22.1.0, SVG Export Plug-In . SVG Version: 6.00 Build 0)  -->
<svg version="1.1" id="レイヤー_1" xmlns="http://www.w3.org/2000/svg" xmlns:xlink="http://www.w3.org/1999/xlink" x="0px"
	 y="0px" viewBox="0 0 99.7 99.7" style="enable-background:new 0 0 99.7 99.7;" xml:space="preserve">
<style type="text/css">
	.st0{fill:#FFFFFF;stroke:#333333;stroke-width:4;stroke-miterlimit:10;}
	.st1{fill:none;stroke:#333333;stroke-width:4;stroke-miterlimit:10;}
</style>
<g>
	<path class="st0" d="M88.7,2H11c-5,0-9,4-9,9v77.7c0,5,4,9,9,9h77.7c5,0,9-4,9-9V11C97.7,6,93.7,2,88.7,2z"/>
	<path class="st1" d="M49.8,15.3l-30.1,32c-0.5,0.5-0.1,1.3,0.7,1.3l15.1-0.1l0.3,33.6c0,0.5,0.4,0.8,1,0.8l14.3-0.1l14.3-0.1
		c0.5,0,0.9-0.4,0.9-0.8L66,48.3l15.1-0.1c0.8,0,1.2-0.8,0.7-1.3L51.2,15.3C50.9,14.9,50.2,14.9,49.8,15.3z"/>
</g>
</svg>
